<svg width="32" height="32" viewBox="0 0 32 32" fill="none" xmlns="http://www.w3.org/2000/svg">
<rect width="32" height="32" rx="16" fill="#171717"/>
<path d="M17.9099 17.3903L16.0006 19.2534L14.0912 17.3903L12.6797 16.0107V18.7663L16.0006 22.009L19.3215 18.7663V16.0107L17.9099 17.3903Z" fill="#00A045"/>
<path d="M26.6673 21.9659V16.4975L17.4869 9.88056L19.3215 8.09212V5.33301L17.91 6.71256L16.0007 8.57567L14.0913 6.71256L12.6798 5.33301V8.08856L14.5144 9.87701L5.33398 16.4975V21.9659L14.0095 13.3437V15.573L16.0007 17.5179L17.9918 15.573V13.3437L26.6673 21.9659ZM14.2762 13.077L16.0007 11.3952L17.7251 13.077L16.0007 14.7588L14.2762 13.077Z" fill="#FFE600"/>
<path d="M16.0009 23.9107L14.0915 22.044L14.0098 21.9658V24.7214L16.0009 26.6663L17.992 24.7214V21.9658L17.9102 22.044L16.0009 23.9107Z" fill="#00A045"/>
</svg>
